# xmcd
#
# Track frame offsets:
#	150
#	12493
#	27035
#	54352
#	66625
#
# Disc length: 1086 seconds
#
# Revision: 1
# Processed by: cddbd v1.5.2PL0 Copyright (c) Steve Scherf et al.
# Submitted via: audiograbber 1.83.01
#
DISCID=3d043c05
DTITLE=Wonderful World - Demo
DYEAR=1900
DGENRE=Lokaal
TTITLE0=Wonderful World - Unwind
TTITLE1=Wonderful World - Liar
TTITLE2=Wonderful World - 2 Love again
TTITLE3=Wonderful World - Lone Ranger
TTITLE4=Wonderful World - B-Way
EXTD=
EXTT0=
EXTT1=
EXTT2=
EXTT3=
EXTT4=
PLAYORDER=
